<mxfile host="app.diagrams.net" modified="2022-03-23T16:06:50.379Z" agent="5.0 (Windows NT 10.0; Win64; x64) AppleWebKit/537.36 (KHTML, like Gecko) Chrome/99.0.4844.82 Safari/537.36" etag="8VSj0BF46sQ0SYdWtWb2" version="17.2.1" type="github">
  <diagram id="Tp8SHPWnUXMJ49ujHusD" name="Page-1">
    <mxGraphModel dx="1865" dy="617" grid="1" gridSize="1" guides="1" tooltips="1" connect="1" arrows="1" fold="1" page="1" pageScale="1" pageWidth="827" pageHeight="1169" math="0" shadow="0">
      <root>
        <mxCell id="0" />
        <mxCell id="1" parent="0" />
        <mxCell id="6pZ_queThqu5wC57r5tg-2" value="" style="ellipse;whiteSpace=wrap;html=1;" vertex="1" parent="1">
          <mxGeometry x="-788" y="269" width="120" height="80" as="geometry" />
        </mxCell>
      </root>
    </mxGraphModel>
  </diagram>
</mxfile>
